# xmcd CD database file
#
# Track frame offsets:
#	150
#	13036
#	28861
#	45412
#	57825
#	76463
#	86824
#	98577
#
# Disc length: 1479 seconds
#
# Revision: 5
# Processed by: cddbd v1.5.2PL0 Copyright (c) Steve Scherf et al.
# Submitted via: CDex 1.70beta2
#
DISCID=5805c508
DTITLE=El Dorado - Advanced ALPHA
DYEAR=2007
DGENRE=Touhou
TTITLE0=karnha - Truth
TTITLE1=Sidh+ - PAɂ̉
TTITLE2=karnha - Crimson sky
TTITLE3=AG - cPl匃{
TTITLE4=Sidh+ - F
TTITLE5=ޕ
TTITLE6=karnha - Timepiece forever
TTITLE7=ATqiJ - cPlɎE邩不明なアーティスト - ０８－稲田姫様に殺されるから
EXTD=E6=０７－Ｔｉｍｅｐｉｅｃｅ　ｆｏｒｅｖｅｒ YEAR: 2007
EXTT0=
EXTT1=
EXTT2=
EXTT3=
EXTT4=
EXTT5=
EXTT6=
EXTT7=
PLAYORDER=
